<?xml version="1.0" encoding="UTF-8" standalone="no"?>
<svg
   version="1.0"
   width="184.85556mm"
   height="66.322224mm"
   id="svg31"
   sodipodi:docname="Artesia logo Process Blue-1805.svg"
   inkscape:version="1.3.2 (091e20e, 2023-11-25, custom)"
   xmlns:inkscape="http://www.inkscape.org/namespaces/inkscape"
   xmlns:sodipodi="http://sodipodi.sourceforge.net/DTD/sodipodi-0.dtd"
   xmlns="http://www.w3.org/2000/svg"
   xmlns:svg="http://www.w3.org/2000/svg">
  <sodipodi:namedview
     id="namedview31"
     pagecolor="#ffffff"
     bordercolor="#000000"
     borderopacity="0.25"
     inkscape:showpageshadow="2"
     inkscape:pageopacity="0.0"
     inkscape:pagecheckerboard="0"
     inkscape:deskcolor="#d1d1d1"
     inkscape:document-units="mm"
     inkscape:zoom="4.1836831"
     inkscape:cx="349.33334"
     inkscape:cy="144.48991"
     inkscape:window-width="3440"
     inkscape:window-height="1369"
     inkscape:window-x="-8"
     inkscape:window-y="-8"
     inkscape:window-maximized="1"
     inkscape:current-layer="svg31" />
  <defs
     id="defs1">
    <pattern
       id="WMFhbasepattern"
       patternUnits="userSpaceOnUse"
       width="6"
       height="6"
       x="0"
       y="0" />
  </defs>
  <path
     style="fill:#c41200;fill-rule:nonzero;fill-opacity:1;stroke:none;"
     d="  M 697.66667,34   L 697.66667,34   L 691.66667,32.333333   L 674.66667,28.666667   L 662,26.333333   L 646.33333,23.333333   L 628.33333,20.333333   L 607.33333,17.333333   L 583.66667,14.333333   L 557.33333,11.333333   L 528.33333,8.3333333   L 496.66667,6   L 462.66667,3.6666667   L 426,2.3333333   L 386.66667,1   L 345,0.66666667   L 345,0.66666667   L 303.33333,1   L 264.33333,2.3333333   L 228.33333,3.6666667   L 194.66667,6   L 163.66667,8.3333333   L 135.33333,11.333333   L 109.66667,14.333333   L 87,17.333333   L 66.666667,20.333333   L 49,23.333333   L 34.333333,26.333333   L 22.333333,28.666667   L 6,32.333333   L 0.66666667,34   L 0.66666667,34   L 6,33   L 22.333333,30.333333   L 49,26.333333   L 66.666667,24.333333   L 87,22   L 109.66667,20   L 135.33333,17.666667   L 163.66667,15.666667   L 194.66667,14   L 228.33333,12.333333   L 264.33333,11.333333   L 303.33333,10.666667   L 345,10.333333   L 345,10.333333   L 386.66667,10.666667   L 426,11.333333   L 462.66667,12.333333   L 496.66667,14   L 528.33333,15.666667   L 557.33333,17.666667   L 583.66667,20   L 607.33333,22   L 628.33333,24.333333   L 646.33333,26.333333   L 674.66667,30.333333   L 691.66667,33   L 697.66667,34   L 697.66667,34  z   "
     id="path1" />
  <path
     style="fill:#0189b4;fill-rule:nonzero;fill-opacity:1;stroke:none;"
     d="  M 426.66667,49.666667   L 426.66667,49.666667   L 426.66667,50.666667   L 426.33333,52   L 425,54.333333   L 423.33333,56.666667   L 420.33333,59   L 417,61.333333   L 413,63.333333   L 408.66667,65   L 403.33333,66.666667   L 397.66667,68.333333   L 391.66667,69.666667   L 385,71   L 378,72   L 371,73   L 363.33333,73.333333   L 355.33333,74   L 347.33333,74   L 347.33333,74   L 339,74   L 331,73.333333   L 323.66667,73   L 316.33333,72   L 309.33333,71   L 302.66667,69.666667   L 296.66667,68.333333   L 291,66.666667   L 285.66667,65   L 281.33333,63.333333   L 277.33333,61.333333   L 274,59   L 271.33333,56.666667   L 269.33333,54.333333   L 268,52   L 267.66667,50.666667   L 267.66667,49.666667   L 267.66667,49.666667   L 267.66667,48.333333   L 268,47   L 269.33333,44.666667   L 271.33333,42.333333   L 274,40   L 277.33333,38   L 281.33333,36   L 285.66667,34   L 291,32.333333   L 296.66667,30.666667   L 302.66667,29.333333   L 309.33333,28   L 316.33333,27   L 323.66667,26.333333   L 331,25.666667   L 339,25.333333   L 347.33333,25   L 347.33333,25   L 355.33333,25.333333   L 363.33333,25.666667   L 371,26.333333   L 378,27   L 385,28   L 391.66667,29.333333   L 397.66667,30.666667   L 403.33333,32.333333   L 408.66667,34   L 413,36   L 417,38   L 420.33333,40   L 423.33333,42.333333   L 425,44.666667   L 426.33333,47   L 426.66667,48.333333   L 426.66667,49.666667   L 426.66667,49.666667  z   "
     id="path2" />
  <path
     style="fill:#0189b4;fill-rule:nonzero;fill-opacity:1;stroke:none;"
     d="  M 130.66667,170   L 98.666667,170   L 114.33333,138   L 130.66667,170  z    M 135.33333,179.33333   L 141.33333,190.66667   L 141.33333,190.66667   L 142.33333,192.66667   L 142.66667,194   L 142.66667,194   L 142.33333,194.66667   L 141.66667,195.33333   L 140.66667,196   L 139.33333,196   L 139.33333,198   L 161,198   L 161,196   L 161,196   L 158.66667,195.66667   L 157.66667,195   L 156.66667,194.33333   L 155,192   L 153,187.33333   L 124.66667,133   L 124.66667,133   L 123.66667,131   L 123.66667,130.33333   L 123.66667,130.33333   L 123.66667,129.66667   L 124,129   L 125,128.66667   L 126.33333,128   L 126.33333,126.33333   L 103.33333,126.33333   L 103.33333,128   L 103.33333,128   L 104.66667,128.33333   L 105.66667,129   L 106,129.33333   L 106.33333,130.33333   L 106.33333,130.33333   L 106,131   L 105.33333,133   L 77.333333,189.33333   L 77.333333,189.33333   L 75.333333,192.66667   L 74,194.66667   L 72.333333,195.66667   L 70.333333,196   L 70.333333,198   L 90.666667,198   L 90.666667,196   L 90.666667,196   L 89.333333,196   L 88,195.33333   L 87.666667,195   L 87.333333,194   L 87.333333,194   L 87.666667,193.33333   L 88.333333,191.33333   L 94.333333,179.33333   L 135.33333,179.33333  z   "
     id="path3" />
  <path
     style="fill:#0189b4;fill-rule:nonzero;fill-opacity:1;stroke:none;"
     d="  M 184.66667,158   L 184.66667,135.66667   L 213,135.66667   L 213,135.66667   L 217.33333,136   L 221,136.33333   L 224,137   L 226.33333,138   L 226.33333,138   L 228.33333,139.66667   L 230,141.66667   L 230.66667,144   L 231,146.66667   L 231,146.66667   L 230.66667,149.66667   L 230,152   L 228.33333,154   L 226.33333,155.66667   L 226.33333,155.66667   L 224,156.66667   L 221,157.33333   L 217.33333,157.66667   L 213,158   L 184.66667,158  z    M 184.66667,167.33333   L 211.66667,167.33333   L 228.33333,191.33333   L 228.33333,191.33333   L 230,194   L 230.33333,194.66667   L 230.33333,194.66667   L 230,195.33333   L 229.66667,195.66667   L 227.33333,196   L 227.33333,198   L 248.66667,198   L 248.66667,196   L 248.66667,196   L 246.66667,195.66667   L 245.33333,195   L 244,193.66667   L 242.33333,191.33333   L 224.66667,166   L 224.66667,166   L 229,165   L 232.66667,163.66667   L 235.66667,161.66667   L 238,159.66667   L 239.66667,157   L 241,154.33333   L 242,151   L 242.33333,147.33333   L 242.33333,147.33333   L 242,144.66667   L 241.66667,142   L 241,140   L 240.33333,137.66667   L 239.33333,135.66667   L 238,134   L 236.33333,132.33333   L 234.66667,131   L 234.66667,131   L 232.66667,129.66667   L 230.66667,128.66667   L 228.33333,128   L 225.66667,127.33333   L 222.66667,127   L 219,126.66667   L 210.33333,126.33333   L 168.66667,126.33333   L 168.66667,128   L 168.66667,128   L 170.33333,128.66667   L 171.33333,129.33333   L 172,130.66667   L 172.33333,132   L 172.33333,192.33333   L 172.33333,192.33333   L 172,193.66667   L 171.33333,194.66667   L 170.33333,195.66667   L 168.66667,196   L 168.66667,198   L 188.33333,198   L 188.33333,196   L 188.33333,196   L 186.66667,195.66667   L 185.66667,194.66667   L 185,193.66667   L 184.66667,192.33333   L 184.66667,167.33333  z   "
     id="path4" />
  <path
     style="fill:#0189b4;fill-rule:nonzero;fill-opacity:1;stroke:none;"
     d="  M 296.33333,192.33333   L 296.33333,192.33333   L 296.66667,193.66667   L 297,194.66667   L 298.33333,195.66667   L 300,196   L 300,198   L 280.33333,198   L 280.33333,196   L 280.33333,196   L 282,195.66667   L 283,194.66667   L 283.66667,193.66667   L 284,192.33333   L 284,135.66667   L 258.33333,135.66667   L 258.33333,135.66667   L 256.66667,136   L 255.66667,136.33333   L 254.66667,137.66667   L 254,139   L 252.33333,139   L 252.33333,123   L 254,123   L 254,123   L 254.66667,124.66667   L 255.66667,125.66667   L 256.66667,126.33333   L 258.33333,126.33333   L 322,126.33333   L 322,126.33333   L 323.33333,126.33333   L 324.66667,125.66667   L 325.33333,124.66667   L 326,123   L 328,123   L 328,139   L 326,139   L 326,139   L 325.33333,137.66667   L 324.66667,136.33333   L 323.66667,136   L 322,135.66667   L 296.33333,135.66667   L 296.33333,192.33333  z   "
     id="path5" />
  <path
     style="fill:#0189b4;fill-rule:nonzero;fill-opacity:1;stroke:none;"
     d="  M 353,188.66667   L 402.33333,188.66667   L 402.33333,188.66667   L 404,188.33333   L 405,187.66667   L 406,186.66667   L 406.66667,185.33333   L 408.33333,185.33333   L 408.33333,201.33333   L 406.66667,201.33333   L 406.66667,201.33333   L 406,199.66667   L 405.33333,198.66667   L 404,198   L 402.33333,198   L 337,198   L 337,196   L 337,196   L 338.66667,195.66667   L 340,194.66667   L 340.33333,193.66667   L 340.66667,192.33333   L 340.66667,132   L 340.66667,132   L 340.33333,130.66667   L 340,129.33333   L 338.66667,128.66667   L 337,128   L 337,126.33333   L 400.33333,126.33333   L 400.33333,126.33333   L 401.66667,126.33333   L 403,125.66667   L 403.66667,124.66667   L 404.33333,123   L 406.33333,123   L 406.33333,139   L 404.33333,139   L 404.33333,139   L 403.66667,137.66667   L 403,136.33333   L 401.66667,136   L 400.33333,135.66667   L 353,135.66667   L 353,156.33333   L 384,156.33333   L 384,156.33333   L 385.66667,156.33333   L 386.66667,155.66667   L 387.66667,154.66667   L 388.33333,153   L 390,153   L 390,169   L 388.33333,169   L 388.33333,169   L 387.66667,167.33333   L 386.66667,166.33333   L 385.66667,166   L 384,165.66667   L 353,165.66667   L 353,188.66667  z   "
     id="path6" />
  <path
     style="fill:#0189b4;fill-rule:nonzero;fill-opacity:1;stroke:none;"
     d="  M 484.66667,146   L 483.33333,145   L 483.33333,145   L 483.33333,143.33333   L 483.33333,143.33333   L 483,142.33333   L 482.33333,141   L 480.66667,140   L 478.33333,138.66667   L 478.33333,138.66667   L 473.66667,137   L 469,135.66667   L 464,135   L 458.66667,134.66667   L 458.66667,134.66667   L 453.33333,135   L 448.66667,135.66667   L 444.33333,136.66667   L 441,138   L 438,140   L 436,142   L 435,143   L 434.66667,144.33333   L 434.33333,145.33333   L 434,146.66667   L 434,146.66667   L 434.33333,148   L 434.66667,149   L 435,150   L 435.66667,150.66667   L 437.66667,152.33333   L 440,153   L 440,153   L 444,153.66667   L 454.66667,155   L 464.66667,156   L 464.66667,156   L 471.66667,156.66667   L 477.33333,157.66667   L 482,158.66667   L 486,160.33333   L 486,160.33333   L 488.33333,161.66667   L 490.66667,163.33333   L 492.33333,165   L 494,167   L 495.33333,169.33333   L 496.33333,171.66667   L 496.66667,174.33333   L 497,177   L 497,177   L 496.66667,179.33333   L 496.33333,182   L 495.33333,184.33333   L 494,186.66667   L 492.66667,188.66667   L 490.66667,190.66667   L 488.66667,192.66667   L 486.33333,194   L 486.33333,194   L 483.66667,195.33333   L 481,196.33333   L 478.33333,197.33333   L 475,198   L 468,198.66667   L 460,199   L 460,199   L 455.33333,199   L 451,198.66667   L 446.66667,198   L 442.66667,197.33333   L 438.66667,196.33333   L 434.66667,195   L 430.66667,193.33333   L 426.66667,191.33333   L 426.66667,191.33333   L 423.33333,190   L 421.66667,189.33333   L 421.66667,189.33333   L 420.66667,189.66667   L 418.66667,190.66667   L 417,190   L 427.66667,174.66667   L 429.33333,175.66667   L 429.33333,176.66667   L 429.33333,176.66667   L 429,178   L 429,178   L 429.33333,179   L 430,180   L 431.33333,181.33333   L 433,182.66667   L 433,182.66667   L 435.66667,184.33333   L 438.66667,185.66667   L 441.66667,186.66667   L 444.66667,187.66667   L 448,188.66667   L 451.33333,189   L 455,189.33333   L 458.66667,189.66667   L 458.66667,189.66667   L 464.33333,189.33333   L 469.66667,188.66667   L 474,187.66667   L 477.66667,186.33333   L 480.66667,184.33333   L 483,182.33333   L 483.66667,181   L 484.33333,180   L 484.66667,178.66667   L 485,177.33333   L 485,177.33333   L 484.66667,176   L 484.33333,174.66667   L 483.66667,173.33333   L 482.66667,172.33333   L 481.66667,171.33333   L 480.33333,170.33333   L 478.66667,169.66667   L 477,169   L 477,169   L 474.33333,168.33333   L 471.33333,167.66667   L 461.33333,166.66667   L 451.33333,166   L 451.33333,166   L 444,165   L 438.66667,164   L 434.33333,163   L 430.66667,161.33333   L 430.66667,161.33333   L 428.66667,160.33333   L 427.33333,159   L 425.66667,157.33333   L 424.66667,155.66667   L 423.66667,154   L 423,152   L 422.66667,150   L 422.33333,147.66667   L 422.33333,147.66667   L 422.66667,145.33333   L 423,142.66667   L 423.66667,140.66667   L 424.66667,138.33333   L 426.33333,136.33333   L 427.66667,134.66667   L 429.66667,132.66667   L 432,131.33333   L 434.33333,130   L 437,128.66667   L 439.66667,127.66667   L 443,126.66667   L 446.33333,126   L 449.66667,125.66667   L 453.66667,125.33333   L 457.33333,125   L 457.33333,125   L 464,125.33333   L 470,126.33333   L 476.33333,127.66667   L 482.66667,129.66667   L 482.66667,129.66667   L 486.33333,131   L 489,131.33333   L 489,131.33333   L 490.33333,131   L 491.66667,130   L 493.33333,130.66667   L 484.66667,146  z   "
     id="path7" />
  <path
     style="fill:#0189b4;fill-rule:nonzero;fill-opacity:1;stroke:none;"
     d="  M 525,192.33333   L 525,192.33333   L 525,193.66667   L 525.66667,194.66667   L 527,195.66667   L 528.66667,196   L 528.66667,198   L 508.66667,198   L 508.66667,196   L 508.66667,196   L 510.33333,195.66667   L 511.66667,194.66667   L 512.33333,193.66667   L 512.33333,192.33333   L 512.33333,132   L 512.33333,132   L 512.33333,130.66667   L 511.66667,129.33333   L 510.33333,128.66667   L 508.66667,128   L 508.66667,126.33333   L 528.66667,126.33333   L 528.66667,128   L 528.66667,128   L 527,128.66667   L 525.66667,129.33333   L 525,130.66667   L 525,132   L 525,192.33333  z   "
     id="path8" />
  <path
     style="fill:#0189b4;fill-rule:nonzero;fill-opacity:1;stroke:none;"
     d="  M 597,170   L 565,170   L 580.66667,138   L 597,170  z    M 601.66667,179.33333   L 607.66667,190.66667   L 607.66667,190.66667   L 608.66667,192.66667   L 609,194   L 609,194   L 608.66667,194.66667   L 608,195.33333   L 607,196   L 605.33333,196   L 605.33333,198   L 627.33333,198   L 627.33333,196   L 627.33333,196   L 624.66667,195.66667   L 624,195   L 623,194.33333   L 621.33333,192   L 619,187.33333   L 591,133   L 591,133   L 590,131   L 589.66667,130.33333   L 589.66667,130.33333   L 590,129.66667   L 590.33333,129   L 591.33333,128.66667   L 592.66667,128   L 592.66667,126.33333   L 569.66667,126.33333   L 569.66667,128   L 569.66667,128   L 571,128.33333   L 572,129   L 572.33333,129.33333   L 572.66667,130.33333   L 572.66667,130.33333   L 572.33333,131   L 571.33333,133   L 543.66667,189.33333   L 543.66667,189.33333   L 541.66667,192.66667   L 540.33333,194.66667   L 538.66667,195.66667   L 536.66667,196   L 536.66667,198   L 557,198   L 557,196   L 557,196   L 555.33333,196   L 554.33333,195.33333   L 554,195   L 553.66667,194   L 553.66667,194   L 553.66667,193.33333   L 554.66667,191.33333   L 560.66667,179.33333   L 601.66667,179.33333  z   "
     id="path9" />
  <path
     style="fill:#c41200;fill-rule:nonzero;fill-opacity:1;stroke:none;"
     d="  M 82,246   L 82,246   L 81.666667,247.33333   L 81.666667,247.33333   L 82,247.66667   L 82.666667,248   L 82.666667,248.66667   L 76.333333,248.66667   L 76.333333,248   L 76.333333,248   L 77,247.66667   L 77,247.33333   L 77,247.33333   L 76.666667,246   L 70.333333,229   L 70.333333,229   L 69.333333,226.66667   L 69,226.33333   L 68.333333,226.33333   L 68.333333,225.66667   L 74.666667,225.66667   L 74.666667,226.33333   L 74.666667,226.33333   L 73.666667,226.66667   L 73.666667,227   L 73.666667,227   L 74,228.66667   L 79.666667,243.33333   L 85,228.66667   L 85,228.66667   L 85.333333,227   L 85.333333,227   L 85.333333,226.66667   L 84.666667,226.33333   L 84.666667,225.66667   L 91,225.66667   L 91,226.33333   L 91,226.33333   L 90.333333,226.66667   L 90,227   L 90,227   L 90.666667,228.66667   L 96,243.33333   L 101.33333,228.66667   L 101.33333,228.66667   L 101.66667,227   L 101.66667,227   L 101.66667,226.66667   L 100.66667,226.33333   L 100.66667,225.66667   L 106.66667,225.66667   L 106.66667,226.33333   L 106.66667,226.33333   L 106,226.33333   L 105.66667,227   L 104.66667,229   L 98.333333,246   L 98.333333,246   L 98,247.33333   L 98,247.33333   L 98.333333,247.66667   L 99,248   L 99,248.66667   L 92.666667,248.66667   L 92.666667,248   L 92.666667,248   L 93.333333,247.66667   L 93.333333,247.33333   L 93.333333,247.33333   L 93.333333,246   L 87.666667,231   L 82,246  z   "
     id="path10" />
  <path
     style="fill:#c41200;fill-rule:nonzero;fill-opacity:1;stroke:none;"
     d="  M 122,241   L 115,241   L 118.33333,232.66667   L 122,241  z    M 123.33333,243.66667   L 124.66667,246.33333   L 124.66667,246.33333   L 125,247.66667   L 125,247.66667   L 125,248   L 124.33333,248.33333   L 124.33333,248.66667   L 130.33333,248.66667   L 130.33333,248.33333   L 130.33333,248.33333   L 129.66667,248   L 129.33333,247.66667   L 128.33333,245.66667   L 122,233   L 122,233   L 121.33333,231   L 121.33333,231   L 121.66667,230.66667   L 122.33333,230.33333   L 122.33333,230   L 115,230   L 115,230.33333   L 115,230.33333   L 115.66667,230.66667   L 116,231   L 116,231   L 115.33333,232.66667   L 109.33333,246   L 109.33333,246   L 108.33333,247.66667   L 108,248   L 107.33333,248.33333   L 107.33333,248.66667   L 113,248.66667   L 113,248.33333   L 113,248.33333   L 112.33333,248   L 112.33333,247.33333   L 112.33333,247.33333   L 112.66667,246.33333   L 113.66667,243.66667   L 123.33333,243.66667  z   "
     id="path11" />
  <path
     style="fill:#c41200;fill-rule:nonzero;fill-opacity:1;stroke:none;"
     d="  M 144.33333,247   L 144.33333,247   L 144.33333,247.66667   L 145.33333,248.33333   L 145.33333,248.66667   L 139.66667,248.66667   L 139.66667,248.33333   L 139.66667,248.33333   L 140.66667,247.66667   L 141,247   L 141,232.66667   L 135,232.66667   L 135,232.66667   L 134.33333,233   L 133.66667,233.66667   L 133.33333,233.66667   L 133.33333,228.66667   L 133.66667,228.66667   L 133.66667,228.66667   L 134.33333,229.66667   L 135,230   L 150,230   L 150,230   L 151,229.66667   L 151.33333,228.66667   L 151.66667,228.66667   L 151.66667,233.66667   L 151.33333,233.66667   L 151.33333,233.66667   L 151,233   L 150,232.66667   L 144.33333,232.66667   L 144.33333,247  z   "
     id="path12" />
  <path
     style="fill:#c41200;fill-rule:nonzero;fill-opacity:1;stroke:none;"
     d="  M 161.33333,246   L 173,246   L 173,246   L 174,245.66667   L 174.33333,244.66667   L 175,244.66667   L 175,249.66667   L 174.33333,249.66667   L 174.33333,249.66667   L 174,249   L 173,248.66667   L 157,248.66667   L 157,248   L 157,248   L 158,247.66667   L 158,247   L 158,231.66667   L 158,231.66667   L 158,230.66667   L 157,230.33333   L 157,230   L 172.33333,230   L 172.33333,230   L 173,229.66667   L 173.66667,228.66667   L 174,228.66667   L 174,233.66667   L 173.66667,233.66667   L 173.66667,233.66667   L 173,233   L 172.33333,232.66667   L 161.33333,232.66667   L 161.33333,237.66667   L 168.33333,237.66667   L 168.33333,237.66667   L 169.33333,237.33333   L 169.66667,236.66667   L 170.33333,236.66667   L 170.33333,241.33333   L 169.66667,241.33333   L 169.66667,241.33333   L 169.33333,240.66667   L 168.33333,240.33333   L 161.33333,240.33333   L 161.33333,246  z   "
     id="path13" />
  <path
     style="fill:#c41200;fill-rule:nonzero;fill-opacity:1;stroke:none;"
     d="  M 185,238   L 185,232.66667   L 192,232.66667   L 192,232.66667   L 194,232.66667   L 195,233   L 195,233   L 196,234   L 196.33333,235.33333   L 196.33333,235.33333   L 196,236.33333   L 195,237.33333   L 195,237.33333   L 194,237.66667   L 192,238   L 185,238  z    M 185,240.66667   L 191,240.66667   L 195,247   L 195,247   L 195.66667,247.66667   L 195.66667,247.66667   L 195.33333,248   L 195,248.33333   L 195,248.66667   L 200.66667,248.66667   L 200.66667,248.33333   L 200.66667,248.33333   L 199.66667,247.66667   L 199,246.66667   L 194.66667,240.33333   L 194.66667,240.33333   L 196.66667,239.66667   L 198,238.66667   L 199,237.33333   L 199.33333,235.33333   L 199.33333,235.33333   L 199,233.66667   L 198.66667,232.33333   L 197.66667,231.33333   L 196.66667,230.66667   L 196.66667,230.66667   L 195.66667,230.33333   L 194.66667,230   L 190.66667,230   L 180.66667,230   L 180.66667,230.33333   L 180.66667,230.33333   L 181.33333,230.66667   L 181.66667,231.33333   L 181.66667,247   L 181.66667,247   L 181.33333,247.66667   L 180.66667,248   L 180.66667,248.66667   L 186,248.66667   L 186,248   L 186,248   L 185.33333,247.66667   L 185,247   L 185,240.66667  z   "
     id="path14" />
  <path
     style="fill:#c41200;fill-rule:nonzero;fill-opacity:1;stroke:none;"
     d="  M 221.66667,238   L 221.66667,232.66667   L 228.33333,232.66667   L 228.33333,232.66667   L 230.33333,232.66667   L 231.66667,233   L 231.66667,233   L 232.33333,234   L 232.66667,235.33333   L 232.66667,235.33333   L 232.33333,236.33333   L 231.66667,237.33333   L 231.66667,237.33333   L 230.33333,237.66667   L 228.33333,238   L 221.66667,238  z    M 221.66667,240.66667   L 227.66667,240.66667   L 231.66667,247   L 231.66667,247   L 232,247.66667   L 232,247.66667   L 232,248   L 231.66667,248.33333   L 231.66667,248.66667   L 237.33333,248.66667   L 237.33333,248.33333   L 237.33333,248.33333   L 236.33333,247.66667   L 235.33333,246.66667   L 231.33333,240.33333   L 231.33333,240.33333   L 233.33333,239.66667   L 234.66667,238.66667   L 235.33333,237.33333   L 235.66667,235.33333   L 235.66667,235.33333   L 235.66667,233.66667   L 235,232.33333   L 234.33333,231.33333   L 233.33333,230.66667   L 233.33333,230.66667   L 232.33333,230.33333   L 231,230   L 227,230   L 217,230   L 217,230.33333   L 217,230.33333   L 218,230.66667   L 218,231.33333   L 218,247   L 218,247   L 218,247.66667   L 217,248   L 217,248.66667   L 222.66667,248.66667   L 222.66667,248   L 222.66667,248   L 221.66667,247.66667   L 221.66667,247   L 221.66667,240.66667  z   "
     id="path15" />
  <path
     style="fill:#c41200;fill-rule:nonzero;fill-opacity:1;stroke:none;"
     d="  M 247,246   L 258.66667,246   L 258.66667,246   L 259.33333,245.66667   L 260,244.66667   L 260.33333,244.66667   L 260.33333,249.66667   L 260,249.66667   L 260,249.66667   L 259.33333,249   L 258.66667,248.66667   L 242.66667,248.66667   L 242.66667,248   L 242.66667,248   L 243.33333,247.66667   L 243.66667,247   L 243.66667,231.66667   L 243.66667,231.66667   L 243.33333,230.66667   L 242.66667,230.33333   L 242.66667,230   L 257.66667,230   L 257.66667,230   L 258.66667,229.66667   L 259,228.66667   L 259.66667,228.66667   L 259.66667,233.66667   L 259,233.66667   L 259,233.66667   L 258.66667,233   L 257.66667,232.66667   L 247,232.66667   L 247,237.66667   L 254,237.66667   L 254,237.66667   L 254.66667,237.33333   L 255.33333,236.66667   L 255.66667,236.66667   L 255.66667,241.33333   L 255.33333,241.33333   L 255.33333,241.33333   L 254.66667,240.66667   L 254,240.33333   L 247,240.33333   L 247,246  z   "
     id="path16" />
  <path
     style="fill:#c41200;fill-rule:nonzero;fill-opacity:1;stroke:none;"
     d="  M 282,235.33333   L 281.66667,235   L 281.66667,235   L 281.66667,234.66667   L 281.66667,234.66667   L 281.33333,234   L 280.33333,233.33333   L 280.33333,233.33333   L 278,232.33333   L 275,232.33333   L 275,232.33333   L 272.66667,232.33333   L 271,233   L 271,233   L 270,234   L 269.66667,235   L 269.66667,235   L 270,235.66667   L 270.66667,236.33333   L 271.66667,236.66667   L 273.66667,237   L 276.66667,237.33333   L 276.66667,237.33333   L 280.66667,238   L 282,238.33333   L 283,239   L 284,239.66667   L 284.66667,240.66667   L 285,241.66667   L 285,243   L 285,243   L 284.66667,244.33333   L 284,246   L 283,247   L 281.66667,248   L 281.66667,248   L 279.33333,248.66667   L 276,249   L 276,249   L 273.66667,249   L 271.33333,248.33333   L 269.33333,247.66667   L 267,246.66667   L 267,246.66667   L 266.33333,246.33333   L 266.33333,246.33333   L 265.66667,246.66667   L 265.33333,246.33333   L 268,242.33333   L 268.33333,242.66667   L 268.33333,242.66667   L 268,243   L 268,243   L 268.33333,243.66667   L 269.66667,244.66667   L 269.66667,244.66667   L 271,245.33333   L 272.33333,245.66667   L 274,246   L 276,246.33333   L 276,246.33333   L 278.33333,246   L 280,245.33333   L 281.33333,244.33333   L 281.66667,243.66667   L 281.66667,243   L 281.66667,243   L 281.66667,242   L 280.66667,241.33333   L 279,241   L 276.66667,240.66667   L 273.33333,240.33333   L 273.33333,240.33333   L 270.33333,239.66667   L 268.33333,238.66667   L 267.66667,238   L 267,237.33333   L 266.66667,236.33333   L 266.66667,235.33333   L 266.66667,235.33333   L 266.66667,234   L 267.33333,232.66667   L 268,231.66667   L 268.66667,231   L 270,230.33333   L 271.33333,229.66667   L 273,229.66667   L 274.66667,229.33333   L 274.66667,229.33333   L 278,229.66667   L 282,231   L 282,231   L 283,231   L 283,231   L 283.66667,230.66667   L 284.33333,231   L 282,235.33333  z   "
     id="path17" />
  <path
     style="fill:#c41200;fill-rule:nonzero;fill-opacity:1;stroke:none;"
     d="  M 295,246   L 306.66667,246   L 306.66667,246   L 307.33333,245.66667   L 308,244.66667   L 308.33333,244.66667   L 308.33333,249.66667   L 308,249.66667   L 308,249.66667   L 307.33333,249   L 306.66667,248.66667   L 290.66667,248.66667   L 290.66667,248   L 290.66667,248   L 291.33333,247.66667   L 291.66667,247   L 291.66667,231.66667   L 291.66667,231.66667   L 291.33333,230.66667   L 290.66667,230.33333   L 290.66667,230   L 305.66667,230   L 305.66667,230   L 306.66667,229.66667   L 307,228.66667   L 307.66667,228.66667   L 307.66667,233.66667   L 307,233.66667   L 307,233.66667   L 306.66667,233   L 305.66667,232.66667   L 295,232.66667   L 295,237.66667   L 302,237.66667   L 302,237.66667   L 302.66667,237.33333   L 303.33333,236.66667   L 303.66667,236.66667   L 303.66667,241.33333   L 303.33333,241.33333   L 303.33333,241.33333   L 302.66667,240.66667   L 302,240.33333   L 295,240.33333   L 295,246  z   "
     id="path18" />
  <path
     style="fill:#c41200;fill-rule:nonzero;fill-opacity:1;stroke:none;"
     d="  M 327.33333,241   L 320,241   L 323.33333,232.66667   L 327.33333,241  z    M 328.66667,243.66667   L 329.66667,246.33333   L 329.66667,246.33333   L 330,247.66667   L 330,247.66667   L 330,248   L 329.33333,248.33333   L 329.33333,248.66667   L 335.33333,248.66667   L 335.33333,248.33333   L 335.33333,248.33333   L 334.66667,248   L 334.33333,247.66667   L 333.33333,245.66667   L 327,233   L 327,233   L 326.33333,231   L 326.33333,231   L 326.66667,230.66667   L 327.33333,230.33333   L 327.33333,230   L 320,230   L 320,230.33333   L 320,230.33333   L 320.66667,230.66667   L 321,231   L 321,231   L 320.33333,232.66667   L 314.33333,246   L 314.33333,246   L 313.33333,247.66667   L 313,248   L 312.33333,248.33333   L 312.33333,248.66667   L 318,248.66667   L 318,248.33333   L 318,248.33333   L 317.66667,248   L 317.33333,247.33333   L 317.33333,247.33333   L 317.66667,246.33333   L 318.66667,243.66667   L 328.66667,243.66667  z   "
     id="path19" />
  <path
     style="fill:#c41200;fill-rule:nonzero;fill-opacity:1;stroke:none;"
     d="  M 344.33333,238   L 344.33333,232.66667   L 351.33333,232.66667   L 351.33333,232.66667   L 353.33333,232.66667   L 354.33333,233   L 354.33333,233   L 355.33333,234   L 355.33333,235.33333   L 355.33333,235.33333   L 355.33333,236.33333   L 354.33333,237.33333   L 354.33333,237.33333   L 353.33333,237.66667   L 351.33333,238   L 344.33333,238  z    M 344.33333,240.66667   L 350.33333,240.66667   L 354.33333,247   L 354.33333,247   L 355,247.66667   L 355,247.66667   L 354.66667,248   L 354.33333,248.33333   L 354.33333,248.66667   L 360,248.66667   L 360,248.33333   L 360,248.33333   L 359,247.66667   L 358.33333,246.66667   L 354,240.33333   L 354,240.33333   L 356,239.66667   L 357.33333,238.66667   L 358.33333,237.33333   L 358.66667,235.33333   L 358.66667,235.33333   L 358.33333,233.66667   L 358,232.33333   L 357,231.33333   L 356,230.66667   L 356,230.66667   L 355,230.33333   L 354,230   L 350,230   L 340,230   L 340,230.33333   L 340,230.33333   L 340.66667,230.66667   L 341,231.33333   L 341,247   L 341,247   L 340.66667,247.66667   L 340,248   L 340,248.66667   L 345.33333,248.66667   L 345.33333,248   L 345.33333,248   L 344.66667,247.66667   L 344.33333,247   L 344.33333,240.66667  z   "
     id="path20" />
  <path
     style="fill:#c41200;fill-rule:nonzero;fill-opacity:1;stroke:none;"
     d="  M 385.66667,246   L 385.33333,246.33333   L 385.33333,246.33333   L 384.33333,246   L 384.33333,246   L 382.66667,247   L 382.66667,247   L 381,247.66667   L 379,248.33333   L 377,249   L 375,249   L 375,249   L 373,249   L 371,248.33333   L 369.33333,247.66667   L 368,247   L 368,247   L 366.33333,245.33333   L 365.33333,243.66667   L 364.66667,241.33333   L 364.33333,239.33333   L 364.33333,239.33333   L 364.33333,237   L 365,235.33333   L 366,233.66667   L 367.33333,232.33333   L 369,231   L 370.66667,230.33333   L 372.66667,229.66667   L 375,229.33333   L 375,229.33333   L 376.66667,229.66667   L 378.66667,230   L 382.66667,231.33333   L 382.66667,231.33333   L 383.66667,231.66667   L 383.66667,231.66667   L 384.33333,231.33333   L 384.66667,231.66667   L 382.33333,235.66667   L 382,235.33333   L 382,235.33333   L 382,235   L 382,235   L 382,234.66667   L 381.66667,234.33333   L 380,233.33333   L 380,233.33333   L 377.66667,232.66667   L 375.33333,232.33333   L 375.33333,232.33333   L 373.66667,232.33333   L 372.33333,232.66667   L 371,233.33333   L 370,234.33333   L 369,235.33333   L 368.33333,236.33333   L 368,237.66667   L 367.66667,239.33333   L 367.66667,239.33333   L 368,241   L 368.33333,242.33333   L 369,243.33333   L 370,244.33333   L 371,245   L 372.33333,245.66667   L 373.66667,246   L 375.33333,246.33333   L 375.33333,246.33333   L 377,246   L 378.33333,245.66667   L 379.66667,245.33333   L 381,244.66667   L 381,244.66667   L 382,243.66667   L 382,243.33333   L 382,243.33333   L 382,242.66667   L 382.33333,242.33333   L 385.66667,246  z   "
     id="path21" />
  <path
     style="fill:#c41200;fill-rule:nonzero;fill-opacity:1;stroke:none;"
     d="  M 395,240.33333   L 395,247   L 395,247   L 395.33333,247.66667   L 396,248.33333   L 396,248.66667   L 390.66667,248.66667   L 390.66667,248.33333   L 390.66667,248.33333   L 391.33333,247.66667   L 391.66667,247   L 391.66667,231.66667   L 391.66667,231.66667   L 391.33333,230.66667   L 390.66667,230.33333   L 390.66667,230   L 396.33333,230   L 396.33333,230.33333   L 396.33333,230.33333   L 395.33333,230.66667   L 395,231.66667   L 395,237.33333   L 407,237.33333   L 407,231.66667   L 407,231.66667   L 406.66667,230.66667   L 406,230.33333   L 406,230   L 411.66667,230   L 411.66667,230.33333   L 411.66667,230.33333   L 410.66667,230.66667   L 410.33333,231.66667   L 410.33333,247   L 410.33333,247   L 410.66667,247.66667   L 411.66667,248.33333   L 411.66667,248.66667   L 406,248.66667   L 406,248.33333   L 406,248.33333   L 406.66667,247.66667   L 407,247   L 407,240.33333   L 395,240.33333  z   "
     id="path22" />
  <path
     style="fill:#c41200;fill-rule:nonzero;fill-opacity:1;stroke:none;"
     d="  M 434,239.33333   L 434,239.33333   L 434.33333,242.33333   L 434.66667,243.33333   L 435.33333,244   L 435.33333,244   L 436.33333,245   L 437.66667,245.33333   L 439.33333,245.66667   L 441.33333,246   L 441.33333,246   L 443.33333,245.66667   L 445,245.33333   L 446.33333,245   L 447.33333,244   L 447.33333,244   L 448,243.33333   L 448.33333,242.33333   L 448.66667,239.33333   L 448.66667,227.33333   L 448.66667,227.33333   L 448.33333,226.66667   L 447.33333,226.33333   L 447.33333,225.66667   L 452.66667,225.66667   L 452.66667,226.33333   L 452.66667,226.33333   L 452,226.66667   L 451.66667,227.33333   L 451.66667,240   L 451.66667,240   L 451.66667,242   L 451,244   L 450.33333,245.66667   L 449.33333,247   L 447.66667,248   L 446,248.66667   L 443.66667,249   L 441,249   L 441,249   L 438.66667,249   L 436.33333,248.66667   L 434.33333,248   L 433,247   L 432,245.66667   L 431,244   L 430.66667,242   L 430.33333,240   L 430.33333,227.33333   L 430.33333,227.33333   L 430.33333,226.66667   L 429.33333,226.33333   L 429.33333,225.66667   L 435.33333,225.66667   L 435.33333,226.33333   L 435.33333,226.33333   L 434.33333,226.66667   L 434,227.33333   L 434,239.33333  z   "
     id="path23" />
  <path
     style="fill:#c41200;fill-rule:nonzero;fill-opacity:1;stroke:none;"
     d="  M 463.33333,247   L 463.33333,247   L 463.66667,247.66667   L 464.33333,248.33333   L 464.33333,248.66667   L 459.33333,248.66667   L 459.33333,248.33333   L 459.33333,248.33333   L 460,247.66667   L 460.33333,247   L 460.33333,231.66667   L 460.33333,231.66667   L 460,230.66667   L 459.33333,230.33333   L 459.33333,230   L 466,230   L 466,230.33333   L 466,230.33333   L 465.33333,230.66667   L 465.33333,231.33333   L 465.33333,231.33333   L 465.33333,232   L 466,232.66667   L 476,243   L 476,231.66667   L 476,231.66667   L 476,230.66667   L 475,230.33333   L 475,230   L 480.33333,230   L 480.33333,230.33333   L 480.33333,230.33333   L 479.33333,230.66667   L 479,231.66667   L 479,247   L 479,247   L 479.33333,247.66667   L 480.33333,248.33333   L 480.33333,248.66667   L 474.33333,248.66667   L 474.33333,248.33333   L 474.33333,248.33333   L 475,248   L 475.33333,247.33333   L 475.33333,247.33333   L 475,247   L 474.33333,246   L 463.33333,234.66667   L 463.33333,247  z   "
     id="path24" />
  <path
     style="fill:#c41200;fill-rule:nonzero;fill-opacity:1;stroke:none;"
     d="  M 502,246   L 502,246   L 502.66667,245.66667   L 503.33333,244.66667   L 503.66667,244.66667   L 503.66667,249.66667   L 503.33333,249.66667   L 503.33333,249.66667   L 502.66667,249   L 502,248.66667   L 486.66667,248.66667   L 486.66667,248   L 486.66667,248   L 487.33333,247.66667   L 487.66667,247   L 487.66667,231.66667   L 487.66667,231.66667   L 487.33333,230.66667   L 486.66667,230.33333   L 486.66667,230   L 492.33333,230   L 492.33333,230.33333   L 492.33333,230.33333   L 491.33333,230.66667   L 491,231.66667   L 491,246   L 502,246  z   "
     id="path25" />
  <path
     style="fill:#c41200;fill-rule:nonzero;fill-opacity:1;stroke:none;"
     d="  M 514.33333,230   L 514.33333,230.33333   L 514.33333,230.33333   L 513.33333,230.66667   L 513,231.66667   L 513,247   L 513,247   L 513.33333,247.66667   L 514.33333,248.33333   L 514.33333,248.66667   L 508.66667,248.66667   L 508.66667,248.33333   L 508.66667,248.33333   L 509.33333,247.66667   L 509.66667,247   L 509.66667,231.66667   L 509.66667,231.66667   L 509.33333,230.66667   L 508.66667,230.33333   L 508.66667,230   L 514.33333,230  z   "
     id="path26" />
  <path
     style="fill:#c41200;fill-rule:nonzero;fill-opacity:1;stroke:none;"
     d="  M 524.66667,233.66667   L 524.66667,247   L 524.66667,247   L 525,247.66667   L 526,248.33333   L 526,248.66667   L 520.66667,248.66667   L 520.66667,248.33333   L 520.66667,248.33333   L 521.66667,247.66667   L 521.66667,247   L 521.66667,231.66667   L 521.66667,231.66667   L 521.66667,230.66667   L 520.66667,230.33333   L 520.66667,230   L 528,230   L 528,230.33333   L 528,230.33333   L 527.33333,230.66667   L 527.33333,231   L 527.33333,231   L 527.66667,232   L 533,241.33333   L 538,232   L 538,232   L 538.33333,231   L 538.33333,231   L 538.33333,230.66667   L 537.33333,230.33333   L 537.33333,230   L 545,230   L 545,230.33333   L 545,230.33333   L 544.33333,230.66667   L 544,231.66667   L 544,247   L 544,247   L 544.33333,247.66667   L 545,248.33333   L 545,248.66667   L 539.66667,248.66667   L 539.66667,248.33333   L 539.66667,248.33333   L 540.33333,247.66667   L 540.66667,247   L 540.66667,233.66667   L 532.66667,247.66667   L 524.66667,233.66667  z   "
     id="path27" />
  <path
     style="fill:#c41200;fill-rule:nonzero;fill-opacity:1;stroke:none;"
     d="  M 557,230   L 557,230.33333   L 557,230.33333   L 556.33333,230.66667   L 556,231.66667   L 556,247   L 556,247   L 556.33333,247.66667   L 557,248.33333   L 557,248.66667   L 551.66667,248.66667   L 551.66667,248.33333   L 551.66667,248.33333   L 552.33333,247.66667   L 552.66667,247   L 552.66667,231.66667   L 552.66667,231.66667   L 552.33333,230.66667   L 551.66667,230.33333   L 551.66667,230   L 557,230  z   "
     id="path28" />
  <path
     style="fill:#c41200;fill-rule:nonzero;fill-opacity:1;stroke:none;"
     d="  M 573,247   L 573,247   L 573.33333,247.66667   L 574,248.33333   L 574,248.66667   L 568.66667,248.66667   L 568.66667,248.33333   L 568.66667,248.33333   L 569.33333,247.66667   L 569.66667,247   L 569.66667,232.66667   L 563.66667,232.66667   L 563.66667,232.66667   L 563,233   L 562.66667,233.66667   L 562,233.66667   L 562,228.66667   L 562.66667,228.66667   L 562.66667,228.66667   L 563,229.66667   L 563.66667,230   L 578.66667,230   L 578.66667,230   L 579.66667,229.66667   L 580,228.66667   L 580.66667,228.66667   L 580.66667,233.66667   L 580,233.66667   L 580,233.66667   L 579.66667,233   L 578.66667,232.66667   L 573,232.66667   L 573,247  z   "
     id="path29" />
  <path
     style="fill:#c41200;fill-rule:nonzero;fill-opacity:1;stroke:none;"
     d="  M 590.33333,246   L 602,246   L 602,246   L 602.66667,245.66667   L 603,244.66667   L 603.66667,244.66667   L 603.66667,249.66667   L 603,249.66667   L 603,249.66667   L 602.66667,249   L 602,248.66667   L 585.66667,248.66667   L 585.66667,248   L 585.66667,248   L 586.66667,247.66667   L 587,247   L 587,231.66667   L 587,231.66667   L 586.66667,230.66667   L 585.66667,230.33333   L 585.66667,230   L 601,230   L 601,230   L 602,229.66667   L 602.33333,228.66667   L 602.66667,228.66667   L 602.66667,233.66667   L 602.33333,233.66667   L 602.33333,233.66667   L 602,233   L 601,232.66667   L 590.33333,232.66667   L 590.33333,237.66667   L 597.33333,237.66667   L 597.33333,237.66667   L 598,237.33333   L 598.33333,236.66667   L 599,236.66667   L 599,241.33333   L 598.33333,241.33333   L 598.33333,241.33333   L 598,240.66667   L 597.33333,240.33333   L 590.33333,240.33333   L 590.33333,246  z   "
     id="path30" />
  <path
     style="fill:#c41200;fill-rule:nonzero;fill-opacity:1;stroke:none;"
     d="  M 613.66667,246   L 613.66667,232.66667   L 619.33333,232.66667   L 619.33333,232.66667   L 621.33333,232.66667   L 622.66667,233   L 624,233.66667   L 625,234.33333   L 625,234.33333   L 625.66667,235.33333   L 626.33333,236.66667   L 626.66667,237.66667   L 626.66667,239.33333   L 626.66667,239.33333   L 626.66667,240.66667   L 626.33333,242   L 625.66667,243   L 625,244   L 625,244   L 624,245   L 622.66667,245.33333   L 621.33333,245.66667   L 619.33333,246   L 613.66667,246  z    M 609.33333,230.33333   L 609.33333,230.33333   L 610,230.66667   L 610.33333,231.66667   L 610.33333,247   L 610.33333,247   L 610,247.66667   L 609.33333,248   L 609.33333,248.66667   L 619.66667,248.66667   L 619.66667,248.66667   L 622.33333,248.66667   L 624.33333,248   L 626,247.33333   L 627.33333,246.33333   L 627.33333,246.33333   L 628.33333,245   L 629.33333,243.33333   L 630,241.33333   L 630.33333,239.33333   L 630.33333,239.33333   L 630,237   L 629.33333,235.33333   L 628.33333,233.66667   L 627.33333,232   L 627.33333,232   L 626,231   L 624.33333,230.33333   L 622.33333,230   L 619.66667,230   L 609.33333,230   L 609.33333,230.33333  z   "
     id="path31" />
</svg>
