<?xml version="1.0" encoding="utf-8"?>
<!-- Generator: Adobe Illustrator 26.1.0, SVG Export Plug-In . SVG Version: 6.00 Build 0)  -->
<svg version="1.1"
	 id="svg2" xmlns:cc="http://creativecommons.org/ns#" xmlns:dc="http://purl.org/dc/elements/1.1/" xmlns:rdf="http://www.w3.org/1999/02/22-rdf-syntax-ns#" xmlns:svg="http://www.w3.org/2000/svg"
	 xmlns="http://www.w3.org/2000/svg" xmlns:xlink="http://www.w3.org/1999/xlink" x="0px" y="0px" viewBox="0 0 255.1 119.1"
	 style="enable-background:new 0 0 255.1 119.1;" xml:space="preserve">
<style type="text/css">
	.st0{fill:#007DB8;}
	.st1{fill:#FFFFFF;}
</style>
<g id="g10" transform="matrix(1.3333333,0,0,-1.3333333,0,119.05333)">
	<g id="g12" transform="scale(0.1)">
		<path id="path14" class="st0" d="M1913.4,0v892.9H0V0H1913.4"/>
		<path id="path16" class="st1" d="M896.2,580.9v22c0,7.3-2.5,9.4-6.9,9.4c-4.4,0-7-2.2-7-9.2v-22.2h-10.7V632l10.7,5.3v-18.5
			c1.9,1.9,5.3,3.6,9.5,3.6c10.4,0,15-7.1,15-18.6v-22.9H896.2"/>
		<path id="path18" class="st1" d="M958.5,601.2c0,12.4-7.8,21.2-18.4,21.2c-10.6,0-18.3-8.8-18.3-21.2c0-12.5,7.7-21.1,18.3-21.1
			C950.7,580.1,958.5,588.7,958.5,601.2z M947.7,601.2c0-5.7-2.5-10.8-7.6-10.8c-5.1,0-7.5,4.6-7.5,10.8c0,6.3,2.4,10.9,7.5,10.9
			C945.2,612.1,947.7,607.4,947.7,601.2"/>
		<path id="path20" class="st1" d="M1008.5,601.2c0,12.4-7.8,21.2-18.4,21.2c-10.6,0-18.3-8.8-18.3-21.2c0-12.5,7.7-21.1,18.3-21.1
			C1000.7,580.1,1008.5,588.7,1008.5,601.2z M997.7,601.2c0-5.7-2.5-10.8-7.6-10.8c-5.1,0-7.5,4.6-7.5,10.8c0,6.3,2.4,10.9,7.5,10.9
			C995.2,612.1,997.7,607.4,997.7,601.2"/>
		<path id="path22" class="st1" d="M1056.8,587.8v33.7h-10.7v-2.3c-1.9,1.8-5,3.2-8.6,3.2c-10.1,0-15.8-8.5-15.8-20.6
			c0-15.2,7.1-21.7,15.8-21.7c3.9,0,6.6,1.6,8.6,3.4c0-6.2-2.2-8.3-10.6-9.4l3.8-8C1053.5,567.5,1056.8,574.4,1056.8,587.8z
			 M1046.1,593.5c-1.6-2-3.2-3.4-6.6-3.4c-4.2,0-7,3.5-7,11.8c0,6.8,2.2,10.4,6.3,10.4c3.1,0,5.6-1.2,7.2-3.5V593.5"/>
		<path id="path24" class="st1" d="M1098.9,580.9v22c0,7.3-2.5,9.4-6.9,9.4c-4.4,0-7-2.2-7-9.2v-22.2h-10.7V632l10.7,5.3v-18.5
			c1.8,1.9,5.3,3.6,9.5,3.6c10.3,0,15-7.1,15-18.6v-22.9H1098.9"/>
		<path id="path26" class="st1" d="M1159.8,601.2c0,11.6-6.3,21.2-17.1,21.2c-10.3,0-18.1-8.8-18.1-21.2c0-12.9,7.4-21.1,19.1-21.1
			c5.4,0,11.3,2.4,14.5,6.6l-7.6,6.3c-1.5-1.8-4-2.9-6.9-2.9c-3.9,0-8,2.1-8.4,7.7h24.3C1159.7,598.6,1159.8,599.6,1159.8,601.2
			L1159.8,601.2z M1149.4,605.8h-13.9c0.4,4.1,2.8,7.3,6.7,7.3C1146.9,613.1,1149.1,609.5,1149.4,605.8"/>
		<path id="path28" class="st1" d="M1208.5,601.2c0,11.6-6.3,21.2-17.1,21.2c-10.3,0-18.1-8.8-18.1-21.2c0-12.9,7.4-21.1,19.1-21.1
			c5.4,0,11.3,2.4,14.5,6.6l-7.6,6.3c-1.5-1.8-4-2.9-7-2.9c-3.9,0-8,2.1-8.3,7.7h24.3C1208.4,598.6,1208.5,599.6,1208.5,601.2
			L1208.5,601.2z M1198.1,605.8h-13.9c0.4,4.1,2.8,7.3,6.6,7.3C1195.7,613.1,1197.8,609.5,1198.1,605.8"/>
		<path id="path30" class="st1" d="M1271.6,580.9v22c0,7.3-2.1,9.4-6.5,9.4c-4.4,0-6.6-2.2-6.6-9.2v-22.2h-10.7v22
			c0,7.3-2.1,9.4-6.5,9.4c-4.4,0-6.6-2.2-6.6-9.2v-22.2h-10.7v40.6h10.7v-2.7c1.9,1.9,4.7,3.6,8.9,3.6c5.2,0,8.2-1.5,11.2-5.2
			c2.8,2.9,6.2,5.2,12.9,5.2c10.4,0,14.5-7.1,14.5-18.6v-22.9H1271.6"/>
		<path id="path32" class="st1" d="M1323.1,609.1c-1.7,1.6-3.8,2.6-6.2,2.6c-4.2,0-6.9-1.8-6.9-8.8v-22h-10.7v40.6h10.7v-2.7
			c1.8,1.9,4.6,3.6,8.3,3.6c3.5,0,6.1-1.4,7.5-2.9L1323.1,609.1"/>
		<path id="path34" class="st1" d="M1370.7,580.9v27.2c0,9.1-6.7,14.2-16.5,14.2c-6.6,0-10.5-1.4-15.3-4.1l4.1-7.4
			c3.7,2,6.3,2.7,11.2,2.7c3.9,0,5.8-2.3,5.8-5.2v-2c-1.7,0.8-4.1,1.6-7.8,1.6c-9.2,0-16.5-4.5-16.5-13.5c0-9.8,7.6-14.5,15.2-14.5
			c3.8,0,7.2,1.5,9.1,3.5v-2.7H1370.7z M1360,592.8c-1.2-1.9-4-3.7-7.4-3.7c-4.6,0-6.2,2.5-6.2,5.4c0,3.2,2.2,5.1,6.2,5.1
			c3.8,0,5.6-0.5,7.4-1.7V592.8"/>
		<path id="path36" class="st1" d="M1420.8,580.9v27.2c0,9.1-6.7,14.2-16.5,14.2c-6.6,0-10.5-1.4-15.2-4.1l4.1-7.4
			c3.7,2,6.3,2.7,11.1,2.7c3.9,0,5.8-2.3,5.8-5.2v-2c-1.7,0.8-4.1,1.6-7.8,1.6c-9.2,0-16.5-4.5-16.5-13.5c0-9.8,7.6-14.5,15.2-14.5
			c3.8,0,7.2,1.5,9.1,3.5v-2.7H1420.8z M1410.2,592.8c-1.2-1.9-3.9-3.7-7.4-3.7c-4.6,0-6.2,2.5-6.2,5.4c0,3.2,2.2,5.1,6.2,5.1
			c3.8,0,5.6-0.5,7.4-1.7V592.8"/>
		<path id="path38" class="st1" d="M1470.9,580.9v56.4l-10.7-5.3v-12.8c-1.9,1.8-5,3.2-8.6,3.2c-10.1,0-15.8-8.5-15.8-20.6
			c0-15.2,7.1-21.7,15.8-21.7c3.9,0,6.6,1.6,8.6,3.4v-2.5L1470.9,580.9z M1460.2,593.5c-1.6-2-3.2-3.4-6.6-3.4c-4.2,0-7,3.5-7,11.8
			c0,6.8,2.2,10.4,6.3,10.4c3.1,0,5.6-1.2,7.2-3.5L1460.2,593.5"/>
		<path id="path40" class="st1" d="M1504,580.1c-6.4,0-12.7,1.9-17,4.7l3.6,8.1c4.3-2.4,8.9-3.7,14.1-3.7c4.2,0,5.4,1,5.4,3.1
			c0,1.8-1.5,2.8-5.9,4.1c-9.8,2.9-16,5.3-16,13.9c0,8.4,6.7,12.1,16.2,12.1c5.1,0,10.7-1.6,15-3.9l-3.4-8.4
			c-4,2.2-8.4,3.2-11.8,3.2c-4.3,0-5.5-0.8-5.5-2.6c0-1.7,1.2-2.4,8.4-4.7c7.3-2.4,13.5-5,13.5-13.2
			C1520.6,583.4,1513.2,580.1,1504,580.1"/>
		<path id="path42" class="st1" d="M1552.9,580.1c-10.6,0-19,8.7-19,21.1c0,12.4,8.2,21.2,19.5,21.2c7.7,0,12.7-3.8,16.1-9l-7-7.1
			c-2.4,3.4-4.9,5.8-9.3,5.8c-5.1,0-8.4-4.2-8.4-10.9c0-6.5,3.3-10.8,8.4-10.8c4.2,0,6.8,1.9,9.6,5.2l6.8-6.4
			C1565.6,583.9,1561,580.1,1552.9,580.1"/>
		<path id="path44" class="st1" d="M1609.1,580.9v22c0,7.3-2.5,9.4-6.9,9.4s-7-2.2-7-9.2v-22.2h-10.7V632l10.7,5.3v-18.5
			c1.9,1.9,5.3,3.6,9.5,3.6c10.4,0,15-7.1,15-18.6v-22.9H1609.1"/>
		<path id="path46" class="st1" d="M1669.9,580.9v27.2c0,9.1-6.7,14.2-16.5,14.2c-6.6,0-10.5-1.4-15.2-4.1l4.1-7.4
			c3.7,2,6.2,2.7,11.1,2.7c3.9,0,5.8-2.3,5.8-5.2v-2c-1.7,0.8-4.1,1.6-7.8,1.6c-9.2,0-16.5-4.5-16.5-13.5c0-9.8,7.6-14.5,15.2-14.5
			c3.8,0,7.2,1.5,9.1,3.5v-2.7H1669.9z M1659.3,592.8c-1.2-1.9-4-3.7-7.4-3.7c-4.6,0-6.2,2.5-6.2,5.4c0,3.2,2.2,5.1,6.2,5.1
			c3.8,0,5.6-0.5,7.4-1.7V592.8"/>
		<path id="path48" class="st1" d="M1722.1,600.7c0,15.2-7.1,21.7-15.8,21.7c-3.9,0-6.6-1.6-8.6-3.4v2.6H1687V566l10.7,5.3v11.9
			c1.9-1.8,5-3.2,8.6-3.2C1716.3,580.1,1722.1,588.6,1722.1,600.7z M1711.2,600.5c0-6.8-2.2-10.4-6.4-10.4c-3.1,0-5.6,1.2-7.2,3.5
			v15.3c1.6,2,3.2,3.4,6.6,3.4C1708.4,612.3,1711.2,608.8,1711.2,600.5"/>
		<path id="path50" class="st1" d="M913.2,468v28.6h-27.9V468h-13.6v68h13.6v-26h27.9v26h13.6v-68H913.2"/>
		<path id="path52" class="st1" d="M993.3,493.5c0,15.7-9.8,26.6-23.1,26.6c-13.3,0-23-11-23-26.6c0-15.7,9.7-26.5,23-26.5
			C983.5,467,993.3,477.9,993.3,493.5z M979.8,493.5c0-7.1-3.1-13.6-9.5-13.6c-6.4,0-9.4,5.7-9.4,13.6s3,13.7,9.4,13.7
			C976.6,507.2,979.8,501.3,979.8,493.5"/>
		<path id="path54" class="st1" d="M1012,468v64.2l13.4,6.7V468L1012,468"/>
		<path id="path56" class="st1" d="M1047.2,468v64.2l13.4,6.7V468L1047.2,468"/>
		<path id="path58" class="st1" d="M1123.4,468v34.2c0,11.5-8.4,17.9-20.7,17.9c-8.3,0-13.2-1.8-19.1-5.2l5.1-9.3
			c4.7,2.5,7.9,3.4,14,3.4c4.8,0,7.3-2.9,7.3-6.5V500c-2.2,1.1-5.2,2-9.8,2c-11.6,0-20.7-5.6-20.7-16.9c0-12.3,9.5-18.2,19.1-18.2
			c4.8,0,9,2,11.5,4.5V468L1123.4,468z M1110,483c-1.5-2.4-5-4.7-9.3-4.7c-5.7,0-7.8,3.2-7.8,6.8c0,4.1,2.7,6.4,7.8,6.4
			c4.8,0,7-0.7,9.3-2.1V483"/>
		<path id="path60" class="st1" d="M1174.5,468v27.6c0,9.1-3.1,11.9-8.7,11.9c-5.6,0-8.7-2.7-8.7-11.6V468h-13.4v51h13.4v-3.4
			c2.3,2.4,6.6,4.5,11.9,4.5c13,0,18.9-8.9,18.9-23.3V468H1174.5"/>
		<path id="path62" class="st1" d="M1249.7,468v70.9l-13.4-6.7v-16c-2.4,2.2-6.3,4-10.8,4c-12.6,0-19.8-10.7-19.8-26
			c0-19.1,8.9-27.2,19.8-27.2c4.9,0,8.3,2,10.8,4.3V468L1249.7,468z M1236.2,483.9c-1.9-2.5-4.1-4.3-8.2-4.3
			c-5.2,0-8.8,4.4-8.8,14.9c0,8.6,2.8,13,8,13c3.9,0,7-1.6,9-4.4V483.9"/>
		<path id="path64" class="st1" d="M1290.2,467c-8.1,0-15.9,2.3-21.4,5.9l4.5,10.2c5.4-3,11.2-4.7,17.7-4.7c5.2,0,6.8,1.3,6.8,3.9
			c0,2.3-1.8,3.5-7.5,5.2c-12.2,3.7-20.1,6.7-20.1,17.5c0,10.6,8.4,15.2,20.4,15.2c6.4,0,13.4-1.9,18.8-5l-4.3-10.6
			c-5.1,2.7-10.6,4.1-14.9,4.1c-5.4,0-6.9-1.1-6.9-3.3c0-2.1,1.6-3,10.6-5.9c9.1-3,17-6.3,17-16.5C1311,471.1,1301.7,467,1290.2,467
			"/>
		<path id="path66" class="st1" d="M914.6,361.4l-25,37.1c-1.6,2.5-3.9,5.9-4.8,7.7c0-2.5,0.2-11.1,0.2-14.9v-29.9h-13.4v68h13
			l24.1-36c1.6-2.5,3.9-5.9,4.8-7.7c0,2.5-0.2,11.1-0.2,14.9v28.8h13.4v-68L914.6,361.4"/>
		<path id="path68" class="st1" d="M993.3,386.9c0,15.7-9.8,26.6-23.1,26.6c-13.3,0-23-11-23-26.6c0-15.7,9.7-26.5,23-26.5
			C983.5,360.3,993.3,371.2,993.3,386.9z M979.7,386.9c0-7.1-3.1-13.6-9.5-13.6c-6.4,0-9.4,5.7-9.4,13.6c0,7.9,3,13.7,9.4,13.7
			C976.6,400.6,979.7,394.7,979.7,386.9"/>
		<path id="path70" class="st1" d="M1055.1,386.9c0,15.7-9.8,26.6-23.1,26.6c-13.3,0-23-11-23-26.6c0-15.7,9.7-26.5,23-26.5
			C1045.3,360.3,1055.1,371.2,1055.1,386.9z M1041.5,386.9c0-7.1-3.1-13.6-9.6-13.6c-6.4,0-9.4,5.7-9.4,13.6c0,7.9,3,13.7,9.4,13.7
			C1038.4,400.6,1041.5,394.7,1041.5,386.9"/>
		<path id="path72" class="st1" d="M1103.1,396.8c-2.2,1.9-4.8,3.3-7.8,3.3c-5.3,0-8.7-2.2-8.7-11.1v-27.6h-13.4v51h13.4v-3.4
			c2.3,2.4,5.7,4.5,10.5,4.5c4.4,0,7.7-1.8,9.4-3.6L1103.1,396.8"/>
		<path id="path74" class="st1" d="M1162.6,361.4v70.9l-13.4-6.7v-16c-2.4,2.2-6.3,4-10.8,4c-12.6,0-19.8-10.7-19.8-26
			c0-19,8.9-27.2,19.8-27.2c4.9,0,8.3,2,10.8,4.3v-3.2H1162.6z M1149.2,377.3c-1.9-2.5-4.1-4.3-8.3-4.3c-5.2,0-8.8,4.4-8.8,14.9
			c0,8.5,2.8,13,8,13c3.9,0,7-1.5,9-4.4V377.3"/>
		<path id="path76" class="st1" d="M1225.2,386.9c0,14.6-7.9,26.6-21.5,26.6c-12.9,0-22.8-11-22.8-26.6c0-16.1,9.3-26.5,24-26.5
			c6.8,0,14.2,3,18.3,8.3l-9.5,8c-1.9-2.2-5.1-3.6-8.8-3.6c-4.9,0-10,2.6-10.5,9.6h30.5C1225.1,383.6,1225.2,384.9,1225.2,386.9z
			 M1212.1,392.7h-17.5c0.5,5.2,3.5,9.1,8.4,9.1C1209,401.9,1211.8,397.3,1212.1,392.7"/>
		<path id="path78" class="st1" d="M1273.5,396.8c-2.1,1.9-4.8,3.3-7.8,3.3c-5.2,0-8.7-2.2-8.7-11.1v-27.6h-13.4v51h13.4v-3.4
			c2.3,2.4,5.8,4.5,10.5,4.5c4.4,0,7.7-1.8,9.4-3.6L1273.5,396.8"/>
		<path id="path80" class="st1" d="M1322.7,361.4l-9.7,23.5l-6.5-8.1v-15.5H1293v64.2l13.4,6.7v-27.1c0-3.1-0.1-8.4-0.2-10.9
			c1.4,2,3.7,5.3,5.4,7.5l8.3,10.7h15.8l-13.1-16.2l14.7-34.8H1322.7"/>
		<path id="path82" class="st1" d="M1401.3,361.4h-11.2l-5.1,20c-1,4-2.3,9.6-2.7,12.1c-0.4-2.4-1.7-8.1-2.7-12.1l-5.1-20h-11.2
			l-14.7,51h13.6l4.5-18.9c0.9-3.9,2-9.2,2.4-11.7c0.4,2.5,1.7,7.7,2.7,11.7l5.1,18.9h11.1l5.1-18.9c1.1-4,2.3-9.1,2.7-11.7
			c0.4,2.4,1.6,7.8,2.4,11.7l4.5,18.9h13.2L1401.3,361.4"/>
		<path id="path84" class="st1" d="M1471.3,361.4v34.2c0,11.5-8.3,17.9-20.7,17.9c-8.3,0-13.2-1.8-19.2-5.2l5.2-9.3
			c4.7,2.5,7.9,3.4,14,3.4c4.8,0,7.3-2.9,7.3-6.5v-2.5c-2.1,1.1-5.2,2-9.8,2c-11.6,0-20.7-5.6-20.7-16.9c0-12.3,9.5-18.2,19-18.2
			c4.8,0,9,1.9,11.5,4.5v-3.4L1471.3,361.4z M1457.9,376.4c-1.4-2.4-4.9-4.7-9.3-4.7c-5.8,0-7.8,3.2-7.8,6.8c0,4.1,2.7,6.4,7.8,6.4
			c4.8,0,7-0.7,9.3-2.1V376.4"/>
		<path id="path86" class="st1" d="M1521.4,396.8c-2.1,1.9-4.8,3.3-7.8,3.3c-5.2,0-8.6-2.2-8.6-11.1v-27.6h-13.4v51h13.4v-3.4
			c2.3,2.4,5.7,4.5,10.5,4.5c4.4,0,7.7-1.8,9.4-3.6L1521.4,396.8"/>
		<path id="path88" class="st1" d="M1571.2,363.5c-2.2-1.8-6.2-3.1-10.4-3.1c-8.2,0-13.6,6.4-13.6,15.4v24.1h-8.5v12.6h8.5v13.1
			l13.4,6.7v-19.8h12.2v-12.6h-12.2v-20.5c0-4.9,1.7-6.1,4.9-6.1c2.4,0,4.3,1.1,7.6,3.9L1571.2,363.5"/>
		<path id="path90" class="st1" d="M1593.9,361.4v51h13.4v-51H1593.9z M1600.6,416.6c-4.2,0-7.7,3.5-7.7,7.7c0,4.2,3.5,7.7,7.7,7.7
			c4.2,0,7.7-3.5,7.7-7.7C1608.3,420.1,1604.8,416.6,1600.6,416.6"/>
		<path id="path92" class="st1" d="M1648.1,401.9c-4.9,0-7.9-4-8.4-9.1h17.5C1656.8,397.3,1654.1,401.9,1648.1,401.9z M1670,382.6
			h-30.5c0.5-7,5.6-9.6,10.5-9.6c3.7,0,6.8,1.4,8.8,3.6l9.5-8c-4.1-5.3-11.5-8.3-18.3-8.3c-14.7,0-24,10.4-24,26.5
			c0,15.7,9.8,26.6,22.8,26.6c13.6,0,21.5-12.1,21.5-26.6C1670.2,384.9,1670.1,383.6,1670,382.6"/>
		<path id="path94" class="st1" d="M1718.5,396.8c-2.1,1.9-4.8,3.3-7.8,3.3c-5.2,0-8.6-2.2-8.6-11.1v-27.6h-13.4v51h13.4v-3.4
			c2.3,2.4,5.7,4.5,10.5,4.5c4.4,0,7.7-1.8,9.4-3.6L1718.5,396.8"/>
		<path id="path96" class="st1" d="M438.3,576c20.7,17,31.9,37.5,25.1,45.7c-6.8,8.3-29,1.2-49.7-15.8c-20.6-17-31.9-37.5-25.1-45.7
			C395.4,551.9,417.6,559,438.3,576"/>
		<path id="path98" class="st1" d="M460.3,466c-23.5-15.5-27.5-20.2-38.5-16.4c-11.6,4-6.2,22.1-9.7,43.5
			c-1.7,10.5-7.1,34.2-20.5,33.1c-14-1.2-15.2-36.1-17.1-49.2c-5-35.3-27.2-61.5-48.4-75.7c-21.2-14.1-64.6-36.3-97.8-78.7
			c-33.3-42.4-25.2-70.6-5.1-88.8c20.2-18.2,13.1-33.3,22.2-56.5c8.8-22.5,20-16.6,41.4-11.1c31.3,8.1,37.3-12.1,40.4-29.3
			c5.1-28.9,61.5-34.1,61.5,23.2c0,85.9,17.4,118.4,46.4,124.1c38.5,7.6,67,4.7,77.9,13.4c11.3,9.1,19.7,26.2-10.2,47.2
			c-42.1,29.6-34.4,44.8-14.4,98.2C496.6,464.9,476.6,476.8,460.3,466"/>
		<path id="path100" class="st1" d="M261.6,475.8c0.4,28.8-22.9,39.2-38.6,20.2c-5.4-6.5-19.4-6.2-26.4-2.6
			c-12.6,6.5-29.6,34.5-37,47.6c-1.9,3.4-0.8,7.5,2.1,9.9c34.4,27.9,77.8,59.2,77.8,59.2l5.2,15.2c7.6,6.9,30.4,18.7,49.1,27.3
			c-34.7,7.3-40,36-20.2,59.6c12.4,14.8,33.5,40.9,42.9,28.9c8.8-11.3-15.5-28.3,54.4,11.5c30.2,17.2,35-3.4,31.2-12.6
			c-9.4-22.4,66.6,17.5,98.5-4.5c28.7-19.8-44.5-52.6,12-50.1c84.3,3.9,102.6-13.7,92.6-49.8c-19.8-71.4,96.2-34.8,95.5-116
			c-0.2-30.9-66.8-45.5-55.6-79c6-18.1,13.3-34.1,22.4-73.1c9.1-39-27.2-99.9-73.1-91.5c-104,19.1,87.1,147.8,6.9,232.6
			c-12.7,13.4-42.2,40.5-38.9,89c1.2,18-7.8,26.2-21.6,29.2c-26.3,5.9-73.9,10.9-72.1,38c2.9,44.2-74.6-21.2-90.7,38
			c-8.6,31.8-34,22.5-58.9,7.2c-18.5-11.3-30-25.5-28.3-35.5c2.3-13.2,21.5-15,30-15.1c40.4-0.4,49.3-35.8,41.3-64.6
			c-22.5-81.5-63.9-41.2-80.3-145.9c-13.6-86.7-116.4-42.2-100.3-9.2c14.4,29.5,34.7,12.1,46.8,3
			C240.3,433.8,261.1,441.2,261.6,475.8z M293.1,619.9c-0.8,0.7-11.6-1.7-19.7-7c-8.1-5.3-13.7-13.4-13.7-13.4
			c11.5,0.5,16.3-5,20.9-3.6C287.1,597.9,294.7,618.4,293.1,619.9"/>
	</g>
</g>
</svg>
