<svg viewBox="0 0 204.09 43" xmlns="http://www.w3.org/2000/svg"><g transform="translate(-181.42 -321.02)"><g fill="#d7182a"><path d="m185.63 334.58c.45-2.25 1.81-3.5 3.15-3.5 1.12 0 1.71.89 1.71 2 0 2.11-1.54 4.46-3.59 4.46a1.31 1.31 0 0 1 -1.46-1.33 4.79 4.79 0 0 1 .13-1.33zm-1.27-11.32-2.31 11.31a11.44 11.44 0 0 0 -.28 2.26c0 2.17 1.49 3.42 4.45 3.42a7.63 7.63 0 0 0 8-7.76c0-2.33-1.31-4.23-3.81-4.23a5.15 5.15 0 0 0 -3.82 1.64h-.05l1.37-6.63z"/><path d="m195.91 340 1.22-6.48c.35-1.86.48-4 .59-4.95h3.05c-.07.83-.13 1.66-.22 2.49h.07a4.55 4.55 0 0 1 3.91-2.77h.68l-.69 3.39h-.52c-2.43 0-3.38 2.06-3.82 4.41l-.73 3.9z"/><path d="m213.65 333.31c-.54 3-2 4.14-3.06 4.14s-1.55-.79-1.55-2c0-2.27 1.76-4.54 4-4.54a4.44 4.44 0 0 1 1 .1zm2.81 6.66a27.59 27.59 0 0 1 .45-5.25l1.11-5.85a14.32 14.32 0 0 0 -4-.61c-5.86 0-8.7 3.85-8.7 7.83 0 2.51 1.61 4.16 3.79 4.16a4.65 4.65 0 0 0 4.19-2.65c-.06.85-.14 1.69-.16 2.37z"/><path d="m224 334.58c.45-2.25 1.81-3.5 3.15-3.5 1.12 0 1.71.89 1.71 2 0 2.11-1.54 4.46-3.59 4.46a1.32 1.32 0 0 1 -1.46-1.33 5.21 5.21 0 0 1 .13-1.33zm-1.27-11.32-2.31 11.31a11.44 11.44 0 0 0 -.28 2.26c0 2.17 1.5 3.42 4.46 3.42a7.63 7.63 0 0 0 8-7.76c0-2.33-1.31-4.23-3.81-4.23a5.16 5.16 0 0 0 -3.82 1.64h-.05l1.38-6.63z"/><path d="m242.87 333.31c-.54 3-2 4.14-3.06 4.14s-1.55-.79-1.55-2c0-2.27 1.76-4.54 4-4.54a4.51 4.51 0 0 1 1 .1zm2.8 6.66a28.43 28.43 0 0 1 .45-5.25l1.11-5.85a14.2 14.2 0 0 0 -4-.61c-5.85 0-8.69 3.85-8.69 7.83 0 2.51 1.61 4.16 3.78 4.16a4.64 4.64 0 0 0 4.19-2.65h.05c-.07.85-.14 1.69-.17 2.37z"/><path d="m249 340 1.45-7.7c.3-1.49.47-2.72.63-3.73h3.12l-.24 2a5.14 5.14 0 0 1 4.3-2.32c2 0 3.17 1.15 3.17 3.34a14.31 14.31 0 0 1 -.17 1.83l-1.26 6.58h-3.51l1.14-6.06a8.07 8.07 0 0 0 .13-1.3c0-.9-.29-1.53-1.28-1.53-1.24 0-2.63 1.5-3.12 4.14l-.9 4.75z"/><path d="m270.51 325.41-.57 3.13h2.53l-.54 2.73h-2.53l-.69 3.41a8.9 8.9 0 0 0 -.22 1.61c0 .51.2.95 1 .95h1l-.4 2.77a6.26 6.26 0 0 1 -2.06.28c-2.12 0-3.1-1.05-3.1-2.44a10.39 10.39 0 0 1 .26-2.25l.84-4.29h-1.51l.52-2.73h1.51l.41-2.18z"/></g><path d="m344 338.67a14.44 14.44 0 0 1 .35-2.54s.91-4.49 1.08-5.31h4l.93-4.71h-4.06l.94-5.09-.27.07-5.84 1.57-.65 3.45h-2.88l-.9 4.71h2.88l-1.3 6.65a19.27 19.27 0 0 0 -.36 2.34c2-.14 4.11-.25 6.2-.36a1.64 1.64 0 0 1 -.12-.78z" fill="#00509f"/><path d="m377.41 338.36c.88-4.72 2.77-6.92 5.94-6.92h1v-.15l1.14-5.63h-1.3c-2.45 0-4.66 1.48-6.15 4.06.08-.82.33-3.61.33-3.61h-5.23l-.16 1.66c-.16 1.77-.39 4.19-.8 6.39l-.87 4.61h6z" fill="#00509f"/><path d="m313.23 323.13h-6.33l-4.7 11.36c-.66 1.72-1.35 3.58-2.09 5.6 0-1.53.05-3.2.05-5.25v-11.71h-7.25l-4.67 11.41s-1.56 4.08-1.56 4.08l-.77 2c0-1.66 0-3.64-.06-5.87l-.29-11.61h-6.56l1.42 23.08c-2.51.52-5 1.1-7.5 1.75l-10.51 2.78c-25.14 6.74-48.93 13.11-80.68 11l-.27 1.85c32.13 2.17 56.1-4.25 81.44-11l10.49-2.79c2.35-.61 7.43-1.77 7.43-1.77 3-.66 8.26-1.89 8.26-1.89l3.42-8.15c.8-2 1.44-3.84 2.07-5.68v3.17 2.35s.08 3.91.15 7.15c3.13-.58 6.4-1.13 9.79-1.65l9.49-20.21z" fill="#00509f"/><path d="m322.21 341.08c2.51-.25 5.82-.57 8.47-.78l2.58-13.61-.15-.05a23 23 0 0 0 -6.45-1c-9.68 0-14.08 6.58-14.08 12.7a7.8 7.8 0 0 0 .86 3.67c2-.24 4.06-.47 6.13-.69a3.14 3.14 0 0 1 -.91-2.47c0-3.58 2.25-8.54 6.48-8.57a6.61 6.61 0 0 1 1.37.15c-.05.34-.82 4.89-.82 4.9-.52 2.96-1.47 4.89-3.48 5.75z" fill="#00509f"/><path d="m361.65 340.65a4.74 4.74 0 0 1 -3.94-1 3.64 3.64 0 0 1 -.8-1.73c8-.6 12.56-2.7 12.1-7.2-.37-3.68-3.58-5.32-7.4-4.94a11.13 11.13 0 0 0 -10.08 12.22c.5 5 3.79 7.68 9.22 7.14a19.24 19.24 0 0 0 3.78-.79l.42-4.43a13.61 13.61 0 0 1 -3.3.73zm-4.6-6.87a4.73 4.73 0 0 1 4.29-4c1.32-.13 2.24.42 2.33 1.24.16 1.65-1.9 2.31-6.62 2.76z" fill="#00509f"/></g></svg>