<?xml version="1.0" encoding="utf-8"?>
<!-- Generator: Adobe Illustrator 19.2.1, SVG Export Plug-In . SVG Version: 6.00 Build 0)  -->
<svg version="1.1" id="Layer_1" xmlns="http://www.w3.org/2000/svg" xmlns:xlink="http://www.w3.org/1999/xlink" x="0px" y="0px"
	 viewBox="0 0 300 150" style="enable-background:new 0 0 300 150;" xml:space="preserve">
<style type="text/css">
	.st0{fill:#006DB1;}
	.st1{fill:#6AAF23;}
</style>
<g>
	<path class="st0" d="M224.7,114c3.5,4.7,6.5,8.9,13.1,5.2c13.5-7.7,24.4-25.2,41.8-21.8c10.5,1.8,17.4,18.9,19.4,23.9l-11.3,9.1
		c-1.4-0.9-8.7-21.9-18.6-19.1c-8.8,2.5-21.6,19-37.4,23.5c-6.9,2-13.8-1.8-17.4-7.8c-4.5-7.4-7.4-13.3-7.8-16.2l11.9-8.3
		C219.8,105.6,222.1,110.5,224.7,114z"/>
	<path class="st0" d="M141.1,125.3c-3.1-4.6-7.6-11.1-10.4-12.2c-10.2-3.9-28.1,19.8-39.2,22.4c-15.3,3.6-22.4-9.4-28.7-23.9
		L75,101.4c4.8,11.3,9.6,22.2,15.7,19.6c14.2-6.1,24.3-19.6,39.2-23.5c18.1-4.8,18.3,18.3,30.5,21.8c11.3,2.6,27.1-17.6,28.3-17.3
		l6.1,10.1C167.1,137.7,152.5,142.4,141.1,125.3z"/>
	<path class="st0" d="M34.9,76.6c-6.7,20.1-13.1,39.2-19.2,59.2c-5.2,0-9.6,0-14.8,0C8.8,107.9,18.4,80,27.1,52.2
		c5.2,0,9.6,0,14.8,0C40.2,60,37.6,68.7,34.9,76.6z"/>
	<path class="st0" d="M83.7,13.9c7.8,13,6.1,29.6,0.9,43.5C78.7,73.1,68,86.1,54.1,95.7c-2.6-4.4-6.9-12-7-12.2
		c18.3-13.1,30.5-36.6,22.6-59.2C74.1,20.8,79.3,17.3,83.7,13.9"/>
	<g>
		<path class="st1" d="M122.5,66.2c-1.8,0-4-0.1-5.3-0.3v18.7h-8.8V39.9c3.6-1.5,9-2.6,14.9-2.6c13.7,0,19.5,6.3,19.5,14.5
			C142.7,59.8,136.9,66.2,122.5,66.2z M123,42c-2.5,0-4.7,0.5-5.9,0.9v18.1c1.3,0.3,3.3,0.5,5.1,0.5c8.6,0,11.8-3.8,11.8-9.8
			C134.1,45.5,130.8,42,123,42z"/>
		<path class="st1" d="M193.3,84.6h-7.5L176.9,55c-0.8-2.7-1.1-5.3-1.1-5.3h-0.1c0,0-0.3,2.6-1.1,5.3l-8.8,29.6h-7.5L145,38.3h9
			l7.7,31.3c0.7,2.6,0.9,5.3,0.9,5.3h0.1c0,0,0.4-2.6,1.1-5.3l9-31.3h6.3l9,31.3c0.7,2.5,1,5.3,1,5.3h0.1c0,0,0.3-2.8,0.9-5.3
			l7.9-31.3h8.2L193.3,84.6z"/>
		<path class="st1" d="M243.2,84.6l-22.4-31.7c-1.7-2.4-2.9-4.7-2.9-4.7h-0.1c0,0,0.2,2.7,0.2,5.5v30.9h-7.3V38.3h8.3l21.2,29.8
			c1.9,2.6,3,4.8,3,4.8h0.1c0,0-0.3-2.6-0.3-5.4V38.3h7.4v46.3H243.2z"/>
	</g>
</g>
</svg>
